# xmcd
#
# Track frame offsets:
#	150
#	14619
#	31884
#	50965
#	64825
#	81961
#	99733
#	115622
#	132297
#	149297
#	164799
#	178831
#
# Disc length: 2661 seconds
#
# Revision: 1
# Processed by: cddbd v1.4b41PL2 Copyright (c) Steve Scherf et al.
# Submitted via: OrangeCD 4.0
#
DISCID=b10a630c
DTITLE=Shania Twain - Wild and Wicked
DYEAR=1900
DGENRE=
TTITLE0=Wild and Wicked
TTITLE1=Two Hearts, One Love
TTITLE2=I Lost My Hearts When I Found You
TTITLE3=Bite My Lip
TTITLE4=(Don't Gimme That) Once Over
TTITLE5=Hate To Love
TTITLE6=Send It With Love
TTITLE7=LUV Eyes
TTITLE8=Rhythm Made Me Do It
TTITLE9=Half Breed
TTITLE10=For The Love Of Him
TTITLE11=For The Love Of Him (Dance Mix)
EXTD=
EXTT0=
EXTT1=
EXTT2=
EXTT3=
EXTT4=
EXTT5=
EXTT6=
EXTT7=
EXTT8=
EXTT9=
EXTT10=
EXTT11=
PLAYORDER=
